<svg width="64" height="64" viewBox="0 0 64 64" fill="none" xmlns="http://www.w3.org/2000/svg">
<path d="M55.7867 11.0933C54.1122 10.3527 52.1588 10.6661 50.8 11.8933L34.6667 24.6666V16.6666C35.0181 14.2533 33.8536 11.8715 31.7334 10.6666C30.032 9.89769 28.0354 10.2234 26.6667 11.4933L7.84003 26.4799C6.22847 27.6886 5.28003 29.5855 5.28003 31.5999C5.28003 33.6144 6.22847 35.5113 7.84003 36.7199L26.6667 51.7066C27.5573 52.4767 28.6895 52.9107 29.8667 52.9333C30.4843 52.9317 31.094 52.7951 31.6534 52.5333C33.7691 51.3572 34.9608 49.016 34.6667 46.6133V39.3333L50.6667 52.1333C51.58 52.879 52.7147 53.3009 53.8934 53.3333C54.5112 53.3343 55.1216 53.1976 55.68 52.9333C57.7966 51.7603 58.981 49.4126 58.6667 47.0133V17.0133C58.6667 13.0666 56.88 11.5999 55.7867 11.0933Z" fill="#D8E2E9"/>
</svg>
